<?xml version="1.0" encoding="utf-8"?>
<!-- Generator: Adobe Illustrator 18.0.0, SVG Export Plug-In . SVG Version: 6.00 Build 0)  -->
<svg version="1.1" id="Layer_1" xmlns="http://www.w3.org/2000/svg" xmlns:xlink="http://www.w3.org/1999/xlink" x="0px" y="0px"
	 viewBox="14.9 2 12 12" enable-background="new 14.9 2 12 12" xml:space="preserve">
<path d="M20.9,3c2.8,0,5,2.2,5,5s-2.2,5-5,5s-5-2.2-5-5S18.2,3,20.9,3 M20.9,2c-3.3,0-6,2.7-6,6s2.7,6,6,6s6-2.7,6-6S24.2,2,20.9,2
	L20.9,2z"/>
<path fill="none" stroke="#000000" stroke-miterlimit="10" d="M20.9,4v4l2.2,2.2"/>
<g>
	<rect x="23.9" y="7.8" width="1" height="0.5"/>
</g>
<g>
	<rect x="16.9" y="7.8" width="1" height="0.5"/>
</g>
<g>
	<rect x="20.7" y="11" width="0.5" height="1"/>
</g>
</svg>
