<?xml version="1.0" encoding="utf-8"?>
<!-- Generator: Adobe Illustrator 18.0.0, SVG Export Plug-In . SVG Version: 6.00 Build 0)  -->
<svg version="1.1" id="Layer_1" xmlns="http://www.w3.org/2000/svg" xmlns:xlink="http://www.w3.org/1999/xlink" x="0px" y="0px"
	 viewBox="0 0 16 16" enable-background="new 0 0 16 16" xml:space="preserve">
<path fill="#FFFFFF" d="M8,1.3c3.7,0,6.7,2.9,6.7,6.7s-2.9,6.7-6.7,6.7S1.3,11.7,1.3,8S4.4,1.3,8,1.3 M8,0C3.6,0,0,3.6,0,8
	s3.6,8,8,8s8-3.6,8-8S12.4,0,8,0L8,0z"/>
<g>
	<polygon fill="#FFFFFF" points="10.6,11.6 7.5,8.5 7.5,3 8.5,3 8.5,8.1 11.3,10.9 	"/>
</g>
<rect x="12" y="7.7" fill="#FFFFFF" width="1.3" height="0.7"/>
<rect x="2.7" y="7.7" fill="#FFFFFF" width="1.3" height="0.7"/>
<rect x="7.7" y="12" fill="#FFFFFF" width="0.7" height="1.3"/>
</svg>
