<?xml version="1.0" encoding="utf-8"?>
<!-- Generator: Adobe Illustrator 17.1.0, SVG Export Plug-In . SVG Version: 6.00 Build 0)  -->
<!DOCTYPE svg PUBLIC "-//W3C//DTD SVG 1.1//EN" "http://www.w3.org/Graphics/SVG/1.1/DTD/svg11.dtd">
<svg version="1.1" id="レイヤー_1" xmlns="http://www.w3.org/2000/svg" xmlns:xlink="http://www.w3.org/1999/xlink" x="0px"
	 y="0px" width="100px" height="100px" viewBox="0 0 100 100" enable-background="new 0 0 100 100" xml:space="preserve">
<path d="M50,4.7"/>
<path fill="#FFFFFF" d="M37.2,57.1l9.5,8l2.8,2.3l2.3-2.8l8-9.5l9.5,8l2.8,2.3l2.3-2.8l4.5-5.4l2.9,33.5l-60.1,5.3
	c-0.6-7.2-2-23.4-2.9-33.5l5.4,4.5l2.8,2.3l2.3-2.8C29.2,66.6,34.1,60.8,37.2,57.1 M59.3,50.1L49,62.4L36.7,52.1L26.4,64.3
	L14.4,54.2l4,45.8l67.2-5.9c0,0-4-45.8-4-45.8L71.5,60.4L59.3,50.1L59.3,50.1z"/>
<path fill="#FFFFFF" d="M67.7,8.2L67.7,8.2L67.7,8.2l-3.5-0.7L21.5,0l-5.9,33.4l9,12.9l13.1-9.2l9.2,13.1L60,41l9.2,13.1l12.9-9
	l2.3-13.2L67.7,8.2z M66.8,13.2L79.4,31l-15.2-2.7L66.8,13.2z M70.1,49.1L63,38.9L60.9,36l-2.9,2.1l-10.2,7.1L40.7,35l-2.1-2.9
	l-2.9,2.1l-10.2,7.1l-6.1-8.7l5-28.4l39.1,6.9L60,31.2l20.2,3.6L78.8,43L70.1,49.1z"/>
</svg>
