<?xml version="1.0" encoding="utf-8"?>
<!-- Generator: Adobe Illustrator 17.1.0, SVG Export Plug-In . SVG Version: 6.00 Build 0)  -->
<!DOCTYPE svg PUBLIC "-//W3C//DTD SVG 1.1//EN" "http://www.w3.org/Graphics/SVG/1.1/DTD/svg11.dtd">
<svg version="1.1" id="Layer_1" xmlns="http://www.w3.org/2000/svg" xmlns:xlink="http://www.w3.org/1999/xlink" x="0px" y="0px"
	 width="16px" height="16px" viewBox="412.9 289.6 16 16" enable-background="new 412.9 289.6 16 16" xml:space="preserve">
<path d="M420.9,290.6c3.9,0,7,3.1,7,7s-3.1,7-7,7s-7-3.1-7-7S417.1,290.6,420.9,290.6 M420.9,289.6c-4.4,0-8,3.6-8,8s3.6,8,8,8
	s8-3.6,8-8S425.3,289.6,420.9,289.6L420.9,289.6z"/>
<g>
	<polygon points="423.5,300.9 420.4,297.8 420.4,292.3 421.4,292.3 421.4,297.4 424.2,300.2 	"/>
</g>
<rect x="424.9" y="297.3" width="1.3" height="0.7"/>
<rect x="415.6" y="297.3" width="1.3" height="0.7"/>
<rect x="420.6" y="301.6" width="0.7" height="1.3"/>
<rect x="420.6" y="292.3" width="0.7" height="1.3"/>
</svg>
