<?xml version="1.0" encoding="utf-8"?>
<!-- Generator: Adobe Illustrator 18.0.0, SVG Export Plug-In . SVG Version: 6.00 Build 0)  -->
<svg version="1.1" id="Layer_1" xmlns="http://www.w3.org/2000/svg" xmlns:xlink="http://www.w3.org/1999/xlink" x="0px" y="0px"
	 viewBox="2 2 12 12" enable-background="new 2 2 12 12" xml:space="preserve">
<path d="M8,3c2.8,0,5,2.2,5,5s-2.2,5-5,5s-5-2.2-5-5S5.2,3,8,3 M8,2C4.7,2,2,4.7,2,8s2.7,6,6,6s6-2.7,6-6S11.3,2,8,2L8,2z"/>
<path d="M12.2,3.8C11.1,2.6,9.5,2,8,2v6l4.2,4.2C14.6,9.9,14.6,6.1,12.2,3.8z"/>
<g>
	<rect x="11" y="7.8" fill="#FFFFFF" width="1" height="0.5"/>
</g>
<g>
	<rect x="4" y="7.8" width="1" height="0.5"/>
</g>
<g>
	<rect x="7.8" y="4" width="0.5" height="1"/>
</g>
<g>
	<rect x="8" y="4" fill="#FFFFFF" width="0.2" height="1"/>
</g>
<g>
	<rect x="7.8" y="11" width="0.5" height="1"/>
</g>
<path d="M8,3c2.8,0,5,2.2,5,5s-2.2,5-5,5s-5-2.2-5-5S5.2,3,8,3 M8,2C4.7,2,2,4.7,2,8s2.7,6,6,6s6-2.7,6-6S11.3,2,8,2L8,2z"/>
<path d="M12.2,3.8C11.1,2.6,9.5,2,8,2v6l4.2,4.2C14.6,9.9,14.6,6.1,12.2,3.8z"/>
<g>
	<rect x="11" y="7.8" fill="#FFFFFF" width="1" height="0.5"/>
</g>
<g>
	<rect x="4" y="7.8" width="1" height="0.5"/>
</g>
<g>
	<rect x="7.8" y="4" width="0.5" height="1"/>
</g>
<g>
	<rect x="8" y="4" fill="#FFFFFF" width="0.2" height="1"/>
</g>
<g>
	<rect x="7.8" y="11" width="0.5" height="1"/>
</g>
</svg>
