<?xml version="1.0" encoding="utf-8"?>
<!-- Generator: Adobe Illustrator 17.1.0, SVG Export Plug-In . SVG Version: 6.00 Build 0)  -->
<!DOCTYPE svg PUBLIC "-//W3C//DTD SVG 1.1//EN" "http://www.w3.org/Graphics/SVG/1.1/DTD/svg11.dtd">
<svg version="1.1" id="Layer_1" xmlns="http://www.w3.org/2000/svg" xmlns:xlink="http://www.w3.org/1999/xlink" x="0px" y="0px"
	 width="16px" height="16px" viewBox="412.9 289.6 16 16" enable-background="new 412.9 289.6 16 16" xml:space="preserve">
<path d="M416,292.7c2.7-2.7,7.2-2.7,9.9,0c2.7,2.7,2.7,7.2,0,9.9c-2.7,2.7-7.2,2.7-9.9,0C413.3,299.9,413.3,295.4,416,292.7
	 M415.3,292c-3.1,3.1-3.1,8.2,0,11.3s8.2,3.1,11.3,0s3.1-8.2,0-11.3S418.4,288.9,415.3,292L415.3,292z"/>
<rect x="415.6" y="297.3" width="1.3" height="0.7"/>
<rect x="420.6" y="301.6" width="0.7" height="1.3"/>
<path d="M426.6,292c-1.6-1.6-3.6-2.3-5.7-2.3v2.7h0.3v1.3h-0.3v4l4.9,4.9l0.9,0.5C429.7,299.9,429.6,295,426.6,292z M426.3,298h-1.3
	v-0.7h1.3V298z"/>
</svg>
