<?xml version="1.0" encoding="utf-8"?>
<!-- Generator: Adobe Illustrator 18.0.0, SVG Export Plug-In . SVG Version: 6.00 Build 0)  -->
<svg version="1.1" id="Layer_1" xmlns="http://www.w3.org/2000/svg" xmlns:xlink="http://www.w3.org/1999/xlink" x="0px" y="0px"
	 viewBox="0 0 238 288" enable-background="new 0 0 238 288" xml:space="preserve">
<g>
	<rect x="16" y="70" fill="#FFFFFF" width="50" height="40"/>
	<rect x="94" y="16" fill="#FFFFFF" width="50" height="40"/>
	<rect x="16" y="124" fill="#FFFFFF" width="50" height="40"/>
	<rect x="94" y="124" fill="#FFFFFF" width="50" height="40"/>
	<rect x="16" y="232" fill="#FFFFFF" width="50" height="40"/>
	<rect x="94" y="232" fill="#FFFFFF" width="50" height="40"/>
	<rect x="172" y="16" fill="#FFFFFF" width="50" height="40"/>
	<rect x="172" y="124" fill="#FFFFFF" width="50" height="40"/>
	<rect x="172" y="178" fill="#FFFFFF" width="50" height="40"/>
</g>
<rect x="78" y="4" opacity="0.7" fill="#FFFFFF" width="4" height="280"/>
<rect x="0" y="4" opacity="0.7" fill="#FFFFFF" width="4" height="280"/>
<rect x="0" y="284" opacity="0.7" fill="#FFFFFF" width="238" height="4"/>
<rect x="0" y="0" opacity="0.7" fill="#FFFFFF" width="238" height="4"/>
<rect x="156" y="4" opacity="0.7" fill="#FFFFFF" width="4" height="280"/>
<rect x="234" y="4" opacity="0.7" fill="#FFFFFF" width="4" height="280"/>
</svg>
